<?xml version="1.0" encoding="utf-8"?>
<!-- Generator: Adobe Illustrator 15.0.0, SVG Export Plug-In . SVG Version: 6.00 Build 0)  -->
<!DOCTYPE svg PUBLIC "-//W3C//DTD SVG 1.1//EN" "http://www.w3.org/Graphics/SVG/1.1/DTD/svg11.dtd">
<svg version="1.1" id="レイヤー_1" xmlns="http://www.w3.org/2000/svg" xmlns:xlink="http://www.w3.org/1999/xlink" x="0px"
	 y="0px" width="400px" height="300px" viewBox="0 0 400 300" style="enable-background:new 0 0 400 300;" xml:space="preserve">
<style type="text/css">
<![CDATA[
	.st0{fill:#B7D7E5;}
	.st1{fill:#76BEFF;}
]]>
</style>
<path class="st0" d="M276.875,71.481c-1.85-20.383-17.836-36.382-37.52-36.382c-7.809,0-15.066,2.521-21.096,6.822
	c-10.713-15.747-28.752-26.103-49.224-26.103c-32.876,0-59.519,26.65-59.519,59.525c0,0.288,0.082,0.562,0.09,0.864
	c-16.521,8.149-27.801,23.463-27.801,41.23c0,26.232,24.307,47.492,54.292,47.492h127.654c29.984,0,54.312-21.26,54.312-47.492
	C318.064,95.178,300.49,76.631,276.875,71.481z"/>
<g>
	<path class="st1" d="M129.592,209.221c0,5.799-4.701,10.499-10.5,10.499s-10.5-4.7-10.5-10.499s4.701-26.999,10.5-26.999
		S129.592,203.422,129.592,209.221z"/>
	<path class="st1" d="M129.592,266.217c0,5.799-4.701,10.5-10.5,10.5s-10.5-4.701-10.5-10.5s4.701-26.998,10.5-26.998
		S129.592,260.418,129.592,266.217z"/>
	<path class="st1" d="M278.463,209.221c0,5.799-4.701,10.499-10.5,10.499s-10.5-4.7-10.5-10.499s4.701-26.999,10.5-26.999
		S278.463,203.422,278.463,209.221z"/>
	<path class="st1" d="M278.463,266.217c0,5.799-4.701,10.5-10.5,10.5s-10.5-4.701-10.5-10.5s4.701-26.998,10.5-26.998
		S278.463,260.418,278.463,266.217z"/>
	<path class="st1" d="M204.276,202.096c0,5.799-4.701,10.5-10.5,10.5s-10.499-4.701-10.499-10.5s4.7-26.998,10.499-26.998
		S204.276,196.297,204.276,202.096z"/>
	<path class="st1" d="M204.276,274.092c0,5.799-4.701,10.5-10.5,10.5s-10.499-4.701-10.499-10.5s4.7-26.998,10.499-26.998
		S204.276,268.293,204.276,274.092z"/>
	<path class="st1" d="M167.932,238.094c0,5.799-4.701,10.5-10.5,10.5s-10.5-4.701-10.5-10.5s4.701-26.998,10.5-26.998
		S167.932,232.295,167.932,238.094z"/>
	<path class="st1" d="M240.122,238.094c0,5.799-4.7,10.5-10.499,10.5s-10.5-4.701-10.5-10.5s4.701-26.998,10.5-26.998
		S240.122,232.295,240.122,238.094z"/>
</g>
</svg>
