<?xml version="1.0" encoding="utf-8"?>
<!-- Generator: Adobe Illustrator 15.0.0, SVG Export Plug-In . SVG Version: 6.00 Build 0)  -->
<!DOCTYPE svg PUBLIC "-//W3C//DTD SVG 1.1//EN" "http://www.w3.org/Graphics/SVG/1.1/DTD/svg11.dtd">
<svg version="1.1" id="レイヤー_1" xmlns="http://www.w3.org/2000/svg" xmlns:xlink="http://www.w3.org/1999/xlink" x="0px"
	 y="0px" width="400px" height="300px" viewBox="0 0 400 300" style="enable-background:new 0 0 400 300;" xml:space="preserve">
<style type="text/css">
<![CDATA[
	.st0{fill:#F9C953;}
	.st1{fill:#FFCC33;}
	.st2{fill:#9CAFB7;}
]]>
</style>
<path class="st2" d="M276.811,72.481c-1.85-20.383-17.836-36.382-37.52-36.382c-7.808,0-15.066,2.521-21.096,6.822
	c-10.712-15.747-28.752-26.103-49.224-26.103c-32.876,0-59.519,26.65-59.519,59.525c0,0.288,0.082,0.562,0.09,0.864
	c-16.521,8.149-27.801,23.463-27.801,41.23c0,26.232,24.307,47.492,54.292,47.492h127.653c29.984,0,54.312-21.26,54.312-47.492
	C318,96.178,300.426,77.631,276.811,72.481z"/>
<g>
	<path class="st0" d="M221.582,106.378c0.347-0.427,0.45-0.364,0.23,0.141l-28.228,64.818c-0.22,0.505,0.032,1.044,0.56,1.2
		l47.418,14.017c0.527,0.155,0.722,0.665,0.431,1.132l-59.307,95.336c-0.291,0.467-0.39,0.42-0.221-0.104l23.084-71.43
		c0.169-0.523-0.127-1.068-0.658-1.212l-54.49-14.713c-0.531-0.144-0.683-0.61-0.336-1.037L221.582,106.378z"/>
</g>
<g>
	<path class="st1" d="M279.955,178.946c0.347-0.427,0.45-0.364,0.23,0.141l-13.116,30.12c-0.22,0.504,0.032,1.045,0.56,1.2
		l21.733,6.424c0.527,0.155,0.722,0.665,0.431,1.132l-27.882,44.82c-0.291,0.467-0.39,0.42-0.221-0.104l10.746-33.252
		c0.169-0.523-0.127-1.068-0.658-1.212l-25.116-6.782c-0.531-0.144-0.683-0.61-0.336-1.037L279.955,178.946z"/>
</g>
<g>
	<path class="st1" d="M137.024,178.946c0.347-0.427,0.45-0.364,0.23,0.141l-13.116,30.12c-0.22,0.504,0.032,1.045,0.56,1.2
		l21.733,6.424c0.527,0.155,0.722,0.665,0.431,1.132l-27.882,44.82c-0.291,0.467-0.39,0.42-0.221-0.104l10.747-33.252
		c0.169-0.523-0.127-1.068-0.658-1.212l-25.117-6.782c-0.531-0.144-0.683-0.61-0.336-1.037L137.024,178.946z"/>
</g>
</svg>
