<?xml version="1.0" encoding="utf-8"?>
<!-- Generator: Adobe Illustrator 15.0.0, SVG Export Plug-In . SVG Version: 6.00 Build 0)  -->
<!DOCTYPE svg PUBLIC "-//W3C//DTD SVG 1.1//EN" "http://www.w3.org/Graphics/SVG/1.1/DTD/svg11.dtd">
<svg version="1.1" id="レイヤー_1" xmlns="http://www.w3.org/2000/svg" xmlns:xlink="http://www.w3.org/1999/xlink" x="0px"
	 y="0px" width="400px" height="300px" viewBox="0 0 400 300" style="enable-background:new 0 0 400 300;" xml:space="preserve">
<style type="text/css">
<![CDATA[
	.st0{fill:#59C159;}
	.st1{fill:#8DCEFF;}
	.st2{fill:#2B274C;}
	.st3{fill:#FFB3D2;}
	.st4{fill:#FFEE1F;}
]]>
</style>
<path class="st2" d="M349.646,270c0,16.5-13.5,30-30,30h-240c-16.5,0-30-13.5-30-30V30c0-16.5,13.5-30,30-30h240
	c16.5,0,30,13.5,30,30V270z"/>
<polygon class="st4" points="303.193,155.605 308.389,177.611 330.396,182.806 308.389,188 303.193,210.006 298,188 
	275.992,182.806 298,177.611 "/>
<polygon class="st4" points="91.805,68.605 97,90.611 119.008,95.806 97,101 91.805,123.006 86.611,101 64.604,95.806 
	86.611,90.611 "/>
<polygon class="st4" points="209.945,10.945 214,28.123 231.18,32.178 214,36.232 209.945,53.41 205.891,36.232 188.712,32.178 
	205.891,28.123 "/>
<polygon class="st4" points="251.945,240.713 256,257.891 273.18,261.945 256,266 251.945,283.178 247.892,266 230.713,261.945 
	247.892,257.891 "/>
<polygon class="st4" points="89,237 93.055,254.178 110.233,258.232 93.055,262.287 89,279.465 84.945,262.287 67.766,258.232 
	84.945,254.178 "/>
<polygon class="st4" points="309.389,236.371 311.777,246.491 321.898,248.88 311.777,251.269 309.389,261.389 307,251.269 
	296.879,248.88 307,246.491 "/>
<polygon class="st4" points="161.732,58.714 164.121,68.834 174.242,71.223 164.121,73.611 161.732,83.731 159.344,73.611 
	149.223,71.223 159.344,68.834 "/>
<polygon class="st4" points="318.389,11.88 320.777,22 330.898,24.389 320.777,26.777 318.389,36.897 316,26.777 305.879,24.389 
	316,22 "/>
<polygon class="st4" points="91.51,13.714 93.898,23.834 104.02,26.223 93.898,28.611 91.51,38.731 89.121,28.611 79,26.223 
	89.121,23.834 "/>
<g>
	<path class="st3" d="M314.319,81.924c-31.254,2.917-60.789,13.171-86.465,29.37c-25.676,16.2-47.492,38.347-63.31,65.046
		c-1.794-1.151-3.587-2.303-5.38-3.454s-3.587-2.303-5.381-3.454c15.321-30.363,37.719-56.264,64.959-75.952
		c27.24-19.689,59.323-33.166,94.016-38.684c-2.268,4.923-4.394,9.793-6.387,14.605C309.132,73.439,311.784,77.614,314.319,81.924z"
		/>
	<path class="st0" d="M315.827,108.114c-27.934,0.407-55.01,7.55-79.175,20.381c-24.165,12.833-45.422,31.354-61.72,54.516
		c-1.793-1.151-3.586-2.304-5.379-3.454c-1.794-1.152-3.587-2.303-5.381-3.455c15.801-26.826,37.638-49.101,63.367-65.421
		c25.73-16.32,55.354-26.687,86.726-29.692c-2.023,4.74-3.913,9.423-5.675,14.047C311.119,99.262,313.533,103.623,315.827,108.114z"
		/>
	<path class="st1" d="M317.337,134.305c-24.616-2.103-49.231,1.929-71.887,11.392c-22.656,9.463-43.352,24.358-60.129,43.984
		c-1.793-1.151-3.586-2.303-5.379-3.454s-3.587-2.303-5.381-3.454c16.281-23.289,37.557-41.938,61.776-54.892
		c24.22-12.95,51.383-20.205,79.437-20.702c-1.783,4.558-3.436,9.056-4.965,13.49C313.104,125.084,315.283,129.632,317.337,134.305z
		"/>
</g>
<polygon class="st4" points="128.425,104.06 168.211,142.096 222.992,136.869 199.122,186.463 221.023,236.951 166.479,229.566 
	125.218,266 115.394,211.849 68,183.862 116.461,157.787 "/>
</svg>
