<?xml version="1.0" encoding="utf-8"?>
<!-- Generator: Adobe Illustrator 15.0.0, SVG Export Plug-In . SVG Version: 6.00 Build 0)  -->
<!DOCTYPE svg PUBLIC "-//W3C//DTD SVG 1.1//EN" "http://www.w3.org/Graphics/SVG/1.1/DTD/svg11.dtd">
<svg version="1.1" id="レイヤー_1" xmlns="http://www.w3.org/2000/svg" xmlns:xlink="http://www.w3.org/1999/xlink" x="0px"
	 y="0px" width="400px" height="300px" viewBox="0 0 400 300" style="enable-background:new 0 0 400 300;" xml:space="preserve">
<style type="text/css">
<![CDATA[
	.st0{fill:#B7D7E5;}
	.st1{fill:#9CAFB7;}
]]>
</style>
<path class="st0" d="M324.268,82.538c-1.647-18.177-15.902-32.443-33.456-32.443c-6.961,0-13.435,2.247-18.81,6.083
	c-9.552-14.041-25.64-23.276-43.896-23.276c-29.316,0-53.074,23.765-53.074,53.081c0,0.256,0.074,0.501,0.079,0.769
	c-14.73,7.268-24.79,20.924-24.79,36.768c0,23.392,21.676,42.35,48.413,42.35h113.834c26.737,0,48.432-18.958,48.432-42.351
	C361,103.669,345.329,87.13,324.268,82.538z"/>
<path class="st1" d="M254.628,165.48c-2.049-22.58-19.758-40.304-41.563-40.304c-8.648,0-16.69,2.792-23.368,7.557
	c-11.867-17.443-31.852-28.916-54.529-28.916c-36.419,0-65.933,29.523-65.933,65.941c0,0.318,0.091,0.621,0.099,0.956
	c-18.301,9.027-30.797,25.993-30.797,45.675C38.536,245.449,65.463,269,98.68,269h141.411c33.216,0,60.166-23.551,60.166-52.609
	C300.257,191.73,280.788,171.186,254.628,165.48z"/>
</svg>
