<?xml version="1.0" encoding="utf-8"?>
<!-- Generator: Adobe Illustrator 15.0.0, SVG Export Plug-In . SVG Version: 6.00 Build 0)  -->
<!DOCTYPE svg PUBLIC "-//W3C//DTD SVG 1.1//EN" "http://www.w3.org/Graphics/SVG/1.1/DTD/svg11.dtd">
<svg version="1.1" id="レイヤー_1" xmlns="http://www.w3.org/2000/svg" xmlns:xlink="http://www.w3.org/1999/xlink" x="0px"
	 y="0px" width="400px" height="300px" viewBox="0 0 400 300" style="enable-background:new 0 0 400 300;" xml:space="preserve">
<style type="text/css">
<![CDATA[
	.st0{fill:#B7D7E5;}
	.st1{fill:#FF7C24;}
	.st2{fill:#FFCC33;}
]]>
</style>
<g>
	<path class="st2" d="M260.366,113.233l-25.164-20.519l11.546-30.332l-32.072-5.152l-5.132-32.065L179.191,36.71L158.68,11.546
		L138.16,36.71l-30.338-11.546l-5.146,32.065l-32.059,5.146l11.546,30.338L57,113.233l25.164,20.526l-11.553,30.338l32.065,5.131
		l5.146,32.087l30.338-11.56l20.52,25.178l20.505-25.178l30.359,11.56l5.132-32.087l32.072-5.131l-11.546-30.338L260.366,113.233z
		 M158.68,191.658c-43.238,0-78.412-35.174-78.412-78.425c0-43.238,35.174-78.411,78.412-78.411
		c43.237,0,78.411,35.173,78.411,78.411S201.917,191.645,158.68,191.658z"/>
	<path class="st1" d="M158.68,44.768c-37.747,0-68.451,30.719-68.451,68.465c0,37.753,30.704,68.472,68.451,68.472
		c37.753-0.014,68.458-30.726,68.458-68.472S196.433,44.768,158.68,44.768z"/>
	<path class="st0" d="M299.67,193.815c-1.902-20.978-18.354-37.443-38.613-37.443c-8.035,0-15.507,2.594-21.71,7.021
		c-11.024-16.206-29.592-26.863-50.66-26.863c-33.835,0-61.255,27.428-61.255,61.262c0,0.296,0.085,0.578,0.092,0.889
		c-17.002,8.387-28.611,24.148-28.611,42.434c0,26.997,25.017,48.877,55.876,48.877h131.377c30.859,0,55.897-21.88,55.897-48.877
		C342.062,218.204,323.975,199.116,299.67,193.815z"/>
</g>
</svg>
