<?xml version="1.0" encoding="utf-8"?>
<!-- Generator: Adobe Illustrator 15.0.0, SVG Export Plug-In . SVG Version: 6.00 Build 0)  -->
<!DOCTYPE svg PUBLIC "-//W3C//DTD SVG 1.1//EN" "http://www.w3.org/Graphics/SVG/1.1/DTD/svg11.dtd">
<svg version="1.1" id="レイヤー_1" xmlns="http://www.w3.org/2000/svg" xmlns:xlink="http://www.w3.org/1999/xlink" x="0px"
	 y="0px" width="400px" height="300px" viewBox="0 0 400 300" style="enable-background:new 0 0 400 300;" xml:space="preserve">
<style type="text/css">
<![CDATA[
	.st0{fill:#53A9EA;}
	.st1{fill:#C6CCCC;}
	.st2{fill:#327CBF;}
]]>
</style>
<g>
	<path class="st1" d="M195.267,253.498c-2.025,0-3.668-1.641-3.668-3.668V23.034c0-2.026,1.643-3.668,3.668-3.668
		c2.026,0,3.668,1.642,3.668,3.668V249.83C198.935,251.857,197.293,253.498,195.267,253.498z"/>
	<g>
		<path class="st2" d="M245.91,123.69c0,5.355-0.407,10.614-1.189,15.753c0.023,0.02,0.052,0.04,0.076,0.06
			c11.523-9.714,29.83-15.995,50.447-15.995c11.066,0,21.461,1.813,30.504,4.991C309.239,74.405,258.947,35.05,199.45,35.05
			c-0.965,0-1.92,0.038-2.881,0.058C226.2,53.597,245.91,86.346,245.91,123.69z"/>
		<path class="st2" d="M193.657,35.181c-56.074,2.421-103.059,39.826-119.731,90.933c6.961-1.679,14.507-2.606,22.396-2.606
			c19.785,0,37.437,5.786,49.013,14.834c0.044-0.033,0.091-0.066,0.134-0.099c-0.664-4.76-1.036-9.613-1.036-14.554
			C144.432,86.394,164.095,53.683,193.657,35.181z"/>
		<path class="st0" d="M144.432,123.69c0,4.941,0.372,9.794,1.036,14.554c11.582-8.991,29.172-14.736,48.882-14.736
			c20.573,0,38.842,6.256,50.371,15.936c0.782-5.139,1.189-10.398,1.189-15.753c0-37.344-19.71-70.093-49.341-88.582
			c-0.969,0.021-1.943,0.031-2.912,0.073C164.095,53.683,144.432,86.394,144.432,123.69z"/>
	</g>
	<path class="st2" d="M176.492,280.797c-13.295,0-24.113-10.815-24.113-24.111c0-8.421,4.281-16.094,11.453-20.524
		c2.299-1.419,5.31-0.707,6.731,1.591c1.421,2.297,0.707,5.31-1.591,6.731c-4.266,2.634-6.813,7.195-6.813,12.202
		c0,7.9,6.431,14.331,14.333,14.331c7.901,0,14.332-6.431,14.332-14.331v-30.906h9.781v30.906
		C200.605,269.981,189.789,280.797,176.492,280.797z"/>
</g>
</svg>
