<?xml version="1.0" encoding="utf-8"?>
<!-- Generator: Adobe Illustrator 15.0.0, SVG Export Plug-In . SVG Version: 6.00 Build 0)  -->
<!DOCTYPE svg PUBLIC "-//W3C//DTD SVG 1.1//EN" "http://www.w3.org/Graphics/SVG/1.1/DTD/svg11.dtd">
<svg version="1.1" id="レイヤー_1" xmlns="http://www.w3.org/2000/svg" xmlns:xlink="http://www.w3.org/1999/xlink" x="0px"
	 y="0px" width="400px" height="300px" viewBox="0 0 400 300" style="enable-background:new 0 0 400 300;" xml:space="preserve">
<style type="text/css">
<![CDATA[
	.st0{fill:#FF7C24;}
	.st1{fill:#FFCC33;}
]]>
</style>
<path class="st1" d="M335.297,150.182l-33.602-27.401l15.426-40.521l-42.82-6.875l-6.867-42.832l-40.521,15.431l-27.408-33.614
	l-27.401,33.614l-40.521-15.431l-6.875,42.826l-42.819,6.875l15.424,40.528l-33.607,27.401l33.607,27.408l-15.431,40.508
	l42.826,6.881l6.868,42.832l40.528-15.438L199.504,286l27.382-33.627l40.533,15.438l6.881-42.832l42.82-6.868l-15.426-40.521
	L335.297,150.182z M199.504,254.918c-57.744,0-104.724-46.986-104.724-104.736s46.98-104.73,104.724-104.73
	c57.736,0,104.724,46.98,104.724,104.73C304.229,207.918,257.24,254.905,199.504,254.918z"/>
<path class="st0" d="M199.504,58.746c-50.415,0-91.429,41.021-91.429,91.436c0,50.414,41.014,91.441,91.429,91.441
	c50.414-0.013,91.429-41.027,91.429-91.441C290.934,99.767,249.918,58.746,199.504,58.746z"/>
</svg>
