<?xml version="1.0" encoding="utf-8"?>
<!-- Generator: Adobe Illustrator 15.0.0, SVG Export Plug-In . SVG Version: 6.00 Build 0)  -->
<!DOCTYPE svg PUBLIC "-//W3C//DTD SVG 1.1//EN" "http://www.w3.org/Graphics/SVG/1.1/DTD/svg11.dtd">
<svg version="1.1" id="レイヤー_1" xmlns="http://www.w3.org/2000/svg" xmlns:xlink="http://www.w3.org/1999/xlink" x="0px"
	 y="0px" width="400px" height="300px" viewBox="0 0 400 300" style="enable-background:new 0 0 400 300;" xml:space="preserve">
<style type="text/css">
<![CDATA[
	.st0{fill:#9CAFB7;}
	.st1{fill:#76BEFF;}
]]>
</style>
<path class="st0" d="M288.854,72.481c-1.85-20.383-17.836-36.382-37.52-36.382c-7.809,0-15.066,2.521-21.096,6.822
	c-10.713-15.747-28.752-26.103-49.224-26.103c-32.876,0-59.519,26.65-59.519,59.525c0,0.288,0.082,0.562,0.09,0.864
	c-16.521,8.149-27.801,23.463-27.801,41.23c0,26.232,24.307,47.492,54.292,47.492H275.73c29.984,0,54.312-21.26,54.312-47.492
	C330.043,96.178,312.469,77.631,288.854,72.481z"/>
<g>
	<path class="st1" d="M143.835,191.742c-1.419,0-2.855-0.377-4.155-1.17c-3.773-2.299-4.968-7.222-2.668-10.994l2.602-4.27
		c2.299-3.772,7.222-4.97,10.995-2.668c3.773,2.299,4.968,7.222,2.668,10.994l-2.602,4.27
		C149.168,190.377,146.534,191.742,143.835,191.742z"/>
	<path class="st1" d="M104.314,256.598c-1.418,0-2.855-0.377-4.155-1.17c-3.773-2.299-4.968-7.222-2.668-10.994l5.988-9.826
		c2.299-3.772,7.221-4.971,10.995-2.668c3.773,2.299,4.968,7.222,2.668,10.994l-5.988,9.826
		C109.646,255.232,107.013,256.598,104.314,256.598z M124.075,224.17c-1.418,0-2.855-0.377-4.155-1.17
		c-3.773-2.299-4.968-7.221-2.668-10.994l5.988-9.826c2.299-3.772,7.219-4.97,10.995-2.668c3.773,2.299,4.968,7.221,2.668,10.994
		l-5.988,9.826C129.408,222.805,126.774,224.17,124.075,224.17z"/>
	<path class="st1" d="M87.94,283.468c-1.419,0-2.855-0.377-4.155-1.17c-3.773-2.299-4.968-7.222-2.668-10.994l2.602-4.27
		c2.299-3.772,7.222-4.97,10.995-2.668c3.773,2.299,4.968,7.222,2.668,10.994l-2.602,4.27
		C93.273,282.103,90.639,283.468,87.94,283.468z"/>
</g>
<g>
	<path class="st1" d="M112.491,193.85c-1.437,0-2.891-0.387-4.203-1.199c-3.757-2.325-4.917-7.256-2.591-11.013l3.948-6.377
		c2.326-3.757,7.256-4.918,11.013-2.591c3.757,2.325,4.917,7.256,2.591,11.013l-3.948,6.377
		C117.787,192.505,115.169,193.85,112.491,193.85z"/>
	<path class="st1" d="M93.116,225.148c-1.437,0-2.891-0.387-4.203-1.199c-3.757-2.325-4.917-7.256-2.591-11.013l7.648-12.354
		c2.325-3.756,7.255-4.917,11.013-2.591c3.757,2.325,4.917,7.256,2.591,11.013l-7.648,12.354
		C98.412,223.803,95.794,225.148,93.116,225.148z"/>
	<path class="st1" d="M77.441,250.47c-1.437,0-2.891-0.387-4.203-1.199c-3.757-2.325-4.917-7.256-2.591-11.013l3.948-6.377
		c2.326-3.757,7.255-4.918,11.013-2.591c3.757,2.325,4.917,7.256,2.591,11.013l-3.948,6.377
		C82.737,249.125,80.12,250.47,77.441,250.47z"/>
</g>
<g>
	<path class="st1" d="M175.487,193.85c-1.437,0-2.891-0.387-4.203-1.199c-3.757-2.325-4.917-7.256-2.591-11.013l3.948-6.377
		c2.325-3.757,7.255-4.918,11.013-2.591c3.757,2.325,4.917,7.256,2.591,11.013l-3.948,6.377
		C180.784,192.505,178.166,193.85,175.487,193.85z"/>
	<path class="st1" d="M156.112,225.148c-1.437,0-2.891-0.387-4.203-1.199c-3.757-2.325-4.917-7.256-2.591-11.013l7.648-12.354
		c2.326-3.756,7.255-4.917,11.013-2.591c3.757,2.325,4.917,7.256,2.591,11.013l-7.648,12.354
		C161.409,223.803,158.791,225.148,156.112,225.148z"/>
	<path class="st1" d="M140.438,250.47c-1.437,0-2.891-0.387-4.203-1.199c-3.757-2.325-4.917-7.256-2.591-11.013l3.948-6.377
		c2.326-3.757,7.256-4.918,11.013-2.591c3.757,2.325,4.917,7.256,2.591,11.013l-3.948,6.377
		C145.734,249.125,143.116,250.47,140.438,250.47z"/>
</g>
<g>
	<path class="st1" d="M208.333,191.742c-1.419,0-2.854-0.377-4.155-1.169c-3.772-2.3-4.968-7.222-2.669-10.995l2.602-4.27
		c2.3-3.772,7.221-4.967,10.995-2.669c3.772,2.3,4.968,7.222,2.669,10.995l-2.602,4.27
		C213.666,190.377,211.031,191.742,208.333,191.742z"/>
	<path class="st1" d="M168.812,256.598c-1.418,0-2.855-0.377-4.155-1.17c-3.773-2.299-4.968-7.222-2.668-10.994l5.988-9.826
		c2.3-3.772,7.222-4.971,10.995-2.668c3.773,2.299,4.968,7.222,2.668,10.994l-5.988,9.826
		C174.144,255.232,171.51,256.598,168.812,256.598z M188.572,224.17c-1.418,0-2.855-0.377-4.155-1.17
		c-3.773-2.299-4.968-7.221-2.668-10.994l5.988-9.826c2.298-3.772,7.22-4.97,10.995-2.668c3.773,2.299,4.967,7.221,2.668,10.994
		l-5.988,9.826C193.905,222.805,191.271,224.17,188.572,224.17z"/>
	<path class="st1" d="M152.438,283.468c-1.419,0-2.855-0.377-4.155-1.17c-3.773-2.299-4.968-7.222-2.668-10.994l2.602-4.27
		c2.299-3.772,7.222-4.97,10.995-2.668c3.773,2.299,4.968,7.222,2.668,10.994l-2.602,4.27
		C157.77,282.103,155.136,283.468,152.438,283.468z"/>
</g>
<g>
	<path class="st1" d="M239.984,193.85c-1.437,0-2.892-0.387-4.203-1.198c-3.757-2.326-4.917-7.257-2.592-11.014l3.947-6.377
		c2.325-3.757,7.256-4.918,11.014-2.592c3.757,2.326,4.917,7.257,2.592,11.014l-3.947,6.377
		C245.281,192.505,242.663,193.85,239.984,193.85z"/>
	<path class="st1" d="M220.609,225.149c-1.437,0-2.891-0.387-4.202-1.198c-3.757-2.325-4.918-7.256-2.593-11.013l7.647-12.355
		c2.325-3.758,7.254-4.918,11.013-2.593c3.757,2.325,4.918,7.256,2.593,11.013l-7.647,12.355
		C225.906,223.804,223.288,225.149,220.609,225.149z"/>
	<path class="st1" d="M204.935,250.47c-1.437,0-2.892-0.387-4.203-1.198c-3.757-2.326-4.917-7.257-2.592-11.014l3.947-6.377
		c2.324-3.757,7.256-4.918,11.014-2.592c3.757,2.326,4.917,7.257,2.592,11.014l-3.947,6.377
		C210.231,249.125,207.613,250.47,204.935,250.47z"/>
</g>
<g>
	<path class="st1" d="M274.33,191.742c-1.419,0-2.854-0.377-4.155-1.169c-3.772-2.3-4.968-7.222-2.669-10.995l2.602-4.27
		c2.3-3.772,7.221-4.967,10.995-2.669c3.772,2.3,4.968,7.222,2.669,10.995l-2.602,4.27
		C279.663,190.377,277.028,191.742,274.33,191.742z"/>
	<path class="st1" d="M234.809,256.597c-1.419,0-2.854-0.377-4.155-1.169c-3.772-2.3-4.968-7.222-2.669-10.995l5.987-9.826
		c2.3-3.772,7.222-4.968,10.995-2.669c3.772,2.3,4.968,7.222,2.669,10.995l-5.987,9.826
		C240.142,255.231,237.507,256.597,234.809,256.597z M254.568,224.169c-1.419,0-2.855-0.377-4.155-1.17
		c-3.773-2.299-4.968-7.222-2.668-10.994l5.988-9.826c2.299-3.772,7.223-4.969,10.994-2.668c3.773,2.299,4.968,7.222,2.668,10.994
		l-5.988,9.826C259.9,222.804,257.267,224.169,254.568,224.169z"/>
	<path class="st1" d="M218.434,283.468c-1.419,0-2.854-0.377-4.155-1.169c-3.772-2.3-4.968-7.222-2.669-10.995l2.602-4.27
		c2.299-3.772,7.221-4.967,10.995-2.669c3.772,2.3,4.968,7.222,2.669,10.995l-2.602,4.27
		C223.767,282.103,221.132,283.468,218.434,283.468z"/>
</g>
<g>
	<path class="st1" d="M305.981,193.85c-1.437,0-2.892-0.387-4.203-1.198c-3.757-2.326-4.917-7.257-2.592-11.014l3.947-6.377
		c2.325-3.757,7.256-4.918,11.014-2.592c3.757,2.326,4.917,7.257,2.592,11.014l-3.947,6.377
		C311.278,192.505,308.66,193.85,305.981,193.85z"/>
	<path class="st1" d="M286.606,225.149c-1.437,0-2.891-0.387-4.202-1.198c-3.757-2.325-4.918-7.256-2.593-11.013l7.647-12.355
		c2.325-3.758,7.255-4.918,11.013-2.593c3.757,2.325,4.918,7.256,2.593,11.013l-7.647,12.355
		C291.903,223.804,289.285,225.149,286.606,225.149z"/>
	<path class="st1" d="M270.932,250.47c-1.437,0-2.892-0.387-4.203-1.198c-3.757-2.326-4.917-7.257-2.592-11.014l3.947-6.377
		c2.325-3.757,7.255-4.918,11.014-2.592c3.757,2.326,4.917,7.257,2.592,11.014l-3.947,6.377
		C276.229,249.125,273.61,250.47,270.932,250.47z"/>
</g>
</svg>
