<?xml version="1.0" encoding="utf-8"?>
<!-- Generator: Adobe Illustrator 15.0.0, SVG Export Plug-In . SVG Version: 6.00 Build 0)  -->
<!DOCTYPE svg PUBLIC "-//W3C//DTD SVG 1.1//EN" "http://www.w3.org/Graphics/SVG/1.1/DTD/svg11.dtd">
<svg version="1.1" id="レイヤー_1" xmlns="http://www.w3.org/2000/svg" xmlns:xlink="http://www.w3.org/1999/xlink" x="0px"
	 y="0px" width="400px" height="300px" viewBox="0 0 400 300" style="enable-background:new 0 0 400 300;" xml:space="preserve">
<style type="text/css">
<![CDATA[
	.st0{fill:#B7D7E5;}
	.st1{fill:#C1C1C1;}
]]>
</style>
<path class="st0" d="M276.811,70.48c-1.85-20.383-17.836-36.382-37.52-36.382c-7.808,0-15.066,2.521-21.096,6.822
	c-10.712-15.747-28.752-26.103-49.224-26.103c-32.876,0-59.519,26.65-59.519,59.525c0,0.287,0.082,0.562,0.09,0.863
	c-16.521,8.149-27.801,23.464-27.801,41.23c0,26.232,24.307,47.492,54.292,47.492h127.653c29.984,0,54.312-21.26,54.312-47.492
	C318,94.178,300.426,75.631,276.811,70.48z"/>
<g>
	<circle class="st1" cx="120.75" cy="194.25" r="14"/>
	<circle class="st1" cx="200.75" cy="186.25" r="14"/>
	<circle class="st1" cx="230.75" cy="228.25" r="14"/>
	<circle class="st1" cx="276.75" cy="194.25" r="14"/>
	<circle class="st1" cx="276.75" cy="259.25" r="14"/>
	<circle class="st1" cx="164.75" cy="228.25" r="14"/>
	<circle class="st1" cx="120.75" cy="259.25" r="14"/>
	<circle class="st1" cx="200.75" cy="272.25" r="14"/>
</g>
</svg>
