<?xml version="1.0" encoding="utf-8"?>
<!-- Generator: Adobe Illustrator 15.0.0, SVG Export Plug-In . SVG Version: 6.00 Build 0)  -->
<!DOCTYPE svg PUBLIC "-//W3C//DTD SVG 1.1//EN" "http://www.w3.org/Graphics/SVG/1.1/DTD/svg11.dtd">
<svg version="1.1" id="レイヤー_1" xmlns="http://www.w3.org/2000/svg" xmlns:xlink="http://www.w3.org/1999/xlink" x="0px"
	 y="0px" width="400px" height="300px" viewBox="0 0 400 300" style="enable-background:new 0 0 400 300;" xml:space="preserve">
<style type="text/css">
<![CDATA[
	.st0{fill:#B7D7E5;}
	.st1{fill:#2B274C;}
	.st2{fill:#FFEE1F;}
	.st3{fill:#9CAFB7;}
	.st4{fill:#76BEFF;}
]]>
</style>
<path class="st1" d="M349.646,270c0,16.5-13.5,30-30,30h-240c-16.5,0-30-13.5-30-30V30c0-16.5,13.5-30,30-30h240
	c16.5,0,30,13.5,30,30V270z"/>
<path class="st0" d="M314.632,43.902c-1.197-13.206-11.553-23.571-24.307-23.571c-5.058,0-9.762,1.633-13.666,4.42
	c-6.939-10.202-18.628-16.912-31.892-16.912c-21.3,0-38.56,17.266-38.56,38.565c0,0.186,0.054,0.363,0.057,0.559
	c-10.701,5.28-18.01,15.202-18.01,26.713c0,16.996,15.748,30.768,35.174,30.768h82.703c19.426,0,35.188-13.772,35.188-30.769
	C341.319,59.254,329.934,47.238,314.632,43.902z"/>
<path class="st3" d="M214.767,88.622c-1.449-15.975-13.978-28.514-29.404-28.514c-6.119,0-11.809,1.976-16.531,5.347
	c-8.396-12.34-22.535-20.457-38.578-20.457c-25.767,0-46.646,20.887-46.646,46.651c0,0.226,0.064,0.441,0.068,0.677
	c-12.946,6.386-21.787,18.389-21.787,32.313c0,20.559,19.051,37.221,42.55,37.221h100.045c23.499,0,42.564-16.662,42.564-37.221
	C247.048,107.193,233.274,92.658,214.767,88.622z"/>
<g>
	<path class="st4" d="M133.516,181.378c-1.064,0-2.141-0.283-3.116-0.877c-2.83-1.725-3.726-5.416-2.001-8.246l3.902-6.404
		c1.724-2.829,5.417-3.724,8.246-2.002c2.83,1.725,3.726,5.416,2.001,8.246l-3.902,6.404
		C137.515,180.354,135.54,181.378,133.516,181.378z"/>
	<path class="st4" d="M94.601,245.238c-1.064,0-2.141-0.283-3.116-0.877c-2.83-1.725-3.726-5.416-2.001-8.246l7.68-12.604
		c1.724-2.829,5.416-3.725,8.246-2.002c2.83,1.725,3.726,5.416,2.001,8.246l-7.68,12.604
		C98.6,244.214,96.625,245.238,94.601,245.238z M114.058,213.308c-1.064,0-2.142-0.283-3.117-0.877
		c-2.83-1.725-3.726-5.417-2.001-8.246l7.681-12.604c1.725-2.829,5.417-3.724,8.246-2.002c2.83,1.725,3.726,5.417,2.001,8.246
		l-7.681,12.604C118.057,212.283,116.082,213.308,114.058,213.308z"/>
	<path class="st4" d="M78.921,270.969c-1.064,0-2.141-0.283-3.116-0.877c-2.83-1.725-3.726-5.416-2.001-8.246l3.902-6.404
		c1.724-2.828,5.417-3.725,8.246-2.002c2.83,1.725,3.726,5.416,2.001,8.246l-3.902,6.404
		C82.92,269.944,80.945,270.969,78.921,270.969z"/>
</g>
<g>
	<path class="st4" d="M316.506,181.378c-1.063,0-2.141-0.283-3.116-0.877c-2.83-1.725-3.726-5.416-2.002-8.246l3.902-6.404
		c1.724-2.829,5.414-3.726,8.246-2.002c2.83,1.725,3.726,5.416,2.002,8.246l-3.902,6.404
		C320.506,180.354,318.529,181.378,316.506,181.378z"/>
	<path class="st4" d="M277.591,245.238c-1.063,0-2.142-0.283-3.116-0.877c-2.83-1.725-3.726-5.416-2.002-8.246l7.681-12.604
		c1.726-2.829,5.417-3.726,8.246-2.002c2.83,1.725,3.726,5.416,2.002,8.246l-7.681,12.604
		C281.59,244.214,279.614,245.238,277.591,245.238z M297.048,213.308c-1.063,0-2.142-0.283-3.116-0.877
		c-2.83-1.725-3.726-5.417-2.002-8.246l7.681-12.604c1.726-2.83,5.418-3.726,8.246-2.002c2.83,1.725,3.726,5.417,2.002,8.246
		l-7.681,12.604C301.047,212.283,299.072,213.308,297.048,213.308z"/>
	<path class="st4" d="M261.911,270.969c-1.063,0-2.141-0.283-3.116-0.877c-2.83-1.725-3.726-5.416-2.002-8.246l3.902-6.404
		c1.724-2.829,5.415-3.726,8.246-2.002c2.83,1.725,3.726,5.416,2.002,8.246l-3.902,6.404
		C265.911,269.944,263.935,270.969,261.911,270.969z"/>
</g>
<g>
	<path class="st4" d="M246.095,146.931c-1.038,0-2.09-0.27-3.048-0.836c-2.853-1.687-3.798-5.366-2.111-8.219l3.817-6.456
		c1.687-2.851,5.368-3.797,8.219-2.11c2.853,1.687,3.798,5.366,2.111,8.219l-3.817,6.456
		C250.146,145.877,248.146,146.931,246.095,146.931z"/>
	<path class="st4" d="M183.801,252.262c-1.038,0-2.09-0.27-3.048-0.837c-2.853-1.687-3.797-5.366-2.11-8.219l8.197-13.859
		c1.688-2.852,5.366-3.798,8.219-2.109c2.853,1.687,3.797,5.366,2.11,8.219l-8.197,13.859
		C187.852,251.209,185.853,252.262,183.801,252.262z M204.565,217.151c-1.038,0-2.09-0.27-3.049-0.837
		c-2.852-1.687-3.796-5.366-2.11-8.219l8.197-13.859c1.686-2.852,5.365-3.798,8.219-2.109c2.852,1.687,3.797,5.366,2.109,8.219
		l-8.196,13.859C208.616,216.099,206.617,217.151,204.565,217.151z M225.33,182.041c-1.038,0-2.09-0.27-3.049-0.837
		c-2.852-1.687-3.797-5.366-2.109-8.219l8.196-13.859c1.686-2.852,5.364-3.798,8.219-2.109c2.852,1.687,3.797,5.366,2.109,8.219
		l-8.196,13.859C229.381,180.988,227.382,182.041,225.33,182.041z"/>
	<path class="st4" d="M167.416,279.968c-1.038,0-2.09-0.27-3.048-0.837c-2.852-1.687-3.797-5.366-2.11-8.218l3.817-6.455
		c1.687-2.854,5.365-3.799,8.219-2.11c2.852,1.687,3.797,5.366,2.11,8.218l-3.817,6.455
		C171.466,278.915,169.468,279.968,167.416,279.968z"/>
</g>
<g>
	<path class="st4" d="M300.079,131.924c-1.042,0-2.098-0.271-3.059-0.842c-2.849-1.692-3.786-5.374-2.094-8.223l3.83-6.448
		c1.691-2.849,5.373-3.788,8.223-2.095c2.849,1.692,3.786,5.374,2.094,8.223l-3.83,6.448
		C304.122,130.875,302.127,131.924,300.079,131.924z"/>
	<path class="st4" d="M228.566,252.305c-1.042,0-2.098-0.271-3.059-0.843c-2.849-1.692-3.786-5.373-2.094-8.223l7.057-11.88
		c1.69-2.849,5.373-3.789,8.223-2.094c2.849,1.692,3.786,5.373,2.094,8.223l-7.057,11.88
		C232.609,251.256,230.614,252.305,228.566,252.305z M246.444,222.21c-1.042,0-2.098-0.271-3.059-0.843
		c-2.849-1.692-3.786-5.373-2.094-8.223l7.057-11.88c1.691-2.849,5.372-3.789,8.223-2.094c2.849,1.692,3.786,5.373,2.094,8.223
		l-7.057,11.88C250.487,221.161,248.492,222.21,246.444,222.21z M264.322,192.114c-1.042,0-2.098-0.271-3.059-0.843
		c-2.849-1.692-3.786-5.374-2.094-8.223l7.058-11.88c1.691-2.849,5.372-3.788,8.223-2.094c2.849,1.692,3.786,5.374,2.094,8.223
		l-7.058,11.88C268.365,191.065,266.37,192.114,264.322,192.114z M282.2,162.019c-1.042,0-2.098-0.271-3.059-0.843
		c-2.849-1.692-3.786-5.374-2.094-8.223l7.058-11.879c1.691-2.849,5.373-3.789,8.223-2.094c2.849,1.692,3.786,5.374,2.094,8.223
		l-7.058,11.879C286.243,160.97,284.248,162.019,282.2,162.019z"/>
	<path class="st4" d="M213.914,276.968c-1.042,0-2.098-0.271-3.059-0.843c-2.849-1.692-3.786-5.374-2.094-8.223l3.83-6.447
		c1.69-2.849,5.373-3.788,8.223-2.094c2.849,1.692,3.786,5.374,2.094,8.223l-3.83,6.447
		C217.957,275.919,215.962,276.968,213.914,276.968z"/>
</g>
<g>
	<path class="st4" d="M182.905,175.312c-1.097,0-2.206-0.301-3.201-0.93c-2.801-1.771-3.635-5.478-1.864-8.278l4.009-6.339
		c1.771-2.802,5.476-3.634,8.278-1.864c2.801,1.771,3.635,5.478,1.864,8.278l-4.009,6.339
		C186.84,174.324,184.895,175.312,182.905,175.312z"/>
	<path class="st4" d="M139.548,243.88c-1.096,0-2.206-0.301-3.201-0.93c-2.801-1.771-3.636-5.478-1.865-8.278l8.558-13.533
		c1.771-2.801,5.477-3.635,8.278-1.864c2.801,1.771,3.636,5.478,1.865,8.278l-8.558,13.533
		C143.483,242.892,141.537,243.88,139.548,243.88z M161.227,209.597c-1.096,0-2.206-0.301-3.201-0.93
		c-2.801-1.771-3.636-5.478-1.865-8.278l8.558-13.533c1.771-2.801,5.476-3.635,8.278-1.864c2.801,1.771,3.636,5.478,1.865,8.278
		l-8.558,13.533C165.162,208.608,163.216,209.597,161.227,209.597z"/>
	<path class="st4" d="M122.418,270.969c-1.097,0-2.206-0.301-3.201-0.93c-2.801-1.771-3.635-5.478-1.864-8.278l4.009-6.339
		c1.771-2.801,5.477-3.635,8.278-1.864c2.801,1.771,3.635,5.478,1.864,8.278l-4.009,6.339
		C126.353,269.98,124.407,270.969,122.418,270.969z"/>
</g>
<path class="st2" d="M164.988,120.658c0.36-0.415,0.466-0.347,0.232,0.151l-28.955,61.961c-0.232,0.498,0.011,1.025,0.541,1.171
	l48.725,13.42c0.53,0.146,0.714,0.64,0.408,1.097l-60.863,91.177c-0.306,0.457-0.408,0.406-0.229-0.113l23.678-68.273
	c0.181-0.52-0.108-1.055-0.642-1.189l-55.988-14.088c-0.533-0.134-0.674-0.583-0.313-0.998L164.988,120.658z"/>
<path class="st2" d="M294.68,94.628c0.347-0.427,0.45-0.364,0.23,0.141l-17.506,40.201c-0.22,0.504,0.032,1.044,0.56,1.201
	l29.194,8.628c0.527,0.156,0.722,0.666,0.431,1.133l-37.01,59.494c-0.291,0.467-0.39,0.421-0.221-0.103l14.331-44.343
	c0.169-0.523-0.127-1.069-0.658-1.212l-33.65-9.086c-0.531-0.144-0.683-0.61-0.336-1.037L294.68,94.628z"/>
<g>
	<path class="st4" d="M94.584,181.419c-1.043,0-2.101-0.272-3.062-0.845c-2.848-1.695-3.782-5.377-2.087-8.225l3.836-6.445
		c1.693-2.848,5.376-3.783,8.224-2.088c2.848,1.695,3.782,5.377,2.087,8.225l-3.836,6.445
		C98.624,180.372,96.63,181.419,94.584,181.419z"/>
	<path class="st4" d="M76.003,212.633c-1.043,0-2.101-0.272-3.063-0.846c-2.848-1.694-3.782-5.377-2.087-8.225l7.334-12.321
		c1.694-2.847,5.377-3.784,8.225-2.086c2.848,1.694,3.782,5.377,2.087,8.225l-7.334,12.321
		C80.042,211.586,78.049,212.633,76.003,212.633z"/>
	<path class="st4" d="M60.922,237.97c-1.044,0-2.101-0.272-3.063-0.846c-2.848-1.694-3.782-5.377-2.087-8.225l3.836-6.444
		c1.694-2.848,5.377-3.783,8.225-2.086c2.848,1.694,3.782,5.377,2.087,8.225l-3.836,6.444
		C64.961,236.923,62.968,237.97,60.922,237.97z"/>
</g>
</svg>
