<?xml version="1.0" encoding="utf-8"?>
<!-- Generator: Adobe Illustrator 15.0.0, SVG Export Plug-In . SVG Version: 6.00 Build 0)  -->
<!DOCTYPE svg PUBLIC "-//W3C//DTD SVG 1.1//EN" "http://www.w3.org/Graphics/SVG/1.1/DTD/svg11.dtd">
<svg version="1.1" id="レイヤー_1" xmlns="http://www.w3.org/2000/svg" xmlns:xlink="http://www.w3.org/1999/xlink" x="0px"
	 y="0px" width="400px" height="300px" viewBox="0 0 400 300" style="enable-background:new 0 0 400 300;" xml:space="preserve">
<style type="text/css">
<![CDATA[
	.st0{fill:#EFAF30;}
	.st1{fill:#FFE045;}
	.st2{fill:#303030;}
]]>
</style>
<g>
	<polygon class="st1" points="199.865,19.366 245.899,100.995 337.739,119.54 274.346,188.554 285.09,281.636 199.865,242.656 
		114.641,281.636 125.384,188.554 61.99,119.54 153.83,100.995 	"/>
	<path class="st0" d="M285.09,285.636c-0.565,0-1.133-0.119-1.664-0.362l-83.561-38.219l-83.561,38.219
		c-1.312,0.602-2.847,0.446-4.015-0.401c-1.167-0.849-1.788-2.261-1.622-3.695l10.533-91.265l-62.156-67.666
		c-0.977-1.063-1.305-2.57-0.858-3.942c0.446-1.373,1.598-2.399,3.013-2.685l90.046-18.183l45.137-80.035
		c0.709-1.257,2.041-2.035,3.484-2.035s2.775,0.778,3.484,2.035l45.135,80.035l90.047,18.183c1.415,0.286,2.565,1.312,3.012,2.685
		c0.446,1.373,0.118,2.879-0.857,3.942l-62.156,67.666l10.534,91.265c0.165,1.435-0.454,2.847-1.622,3.695
		C286.746,285.377,285.921,285.636,285.09,285.636z M69.734,122.057l58.596,63.791c0.786,0.855,1.161,2.011,1.028,3.165
		l-9.93,86.035l78.774-36.029c1.057-0.482,2.271-0.482,3.328,0l78.773,36.029l-9.931-86.035c-0.133-1.154,0.242-2.31,1.027-3.165
		l58.597-63.791l-84.889-17.141c-1.139-0.23-2.121-0.944-2.692-1.956l-42.55-75.451l-42.551,75.451
		c-0.57,1.012-1.553,1.726-2.692,1.956L69.734,122.057z"/>
</g>
<path class="st2" d="M197.231,206.854c-0.008,0-0.015,0-0.023,0c-25.729-0.014-36.04-21.742-36.466-22.668
	c-0.925-2.006-0.048-4.382,1.958-5.307c2.001-0.925,4.374-0.051,5.302,1.948c0.362,0.77,8.715,18.016,29.209,18.026
	c0.005,0,0.013,0,0.018,0c20.654,0,29.134-17.841,29.218-18.021c0.927-2.005,3.303-2.879,5.309-1.953
	c2.006,0.927,2.88,3.304,1.953,5.309C233.282,185.114,222.941,206.854,197.231,206.854z"/>
<path class="st2" d="M234.516,144.875c0,6.459-3.49,11.707-7.794,11.707c-4.312,0-7.812-5.248-7.812-11.707
	c0-6.461,3.499-11.699,7.812-11.699C231.025,133.176,234.516,138.414,234.516,144.875z"/>
<path class="st2" d="M176.361,144.875c0,6.459-3.489,11.707-7.802,11.707c-4.304,0-7.803-5.248-7.803-11.707
	c0-6.461,3.499-11.699,7.803-11.699C172.872,133.176,176.361,138.414,176.361,144.875z"/>
</svg>
